<?xml version="1.0" encoding="UTF-8" standalone="no"?><svg xmlns="http://www.w3.org/2000/svg" xmlns:xlink="http://www.w3.org/1999/xlink" clip-rule="evenodd" stroke-miterlimit="10" viewBox="0 0 1024 768"><desc>SVG generated by Keynote</desc><defs></defs><g transform="matrix(1.00, 0.00, -0.00, -1.00, 0.0, 768.0)"><path d="M 0.0 768.0 L 1024.0 768.0 L 1024.0 0.0 L 0.0 0.0 Z M 0.0 768.0 " fill="#F9F9F9"></path><text xml:space="preserve" font-family="Helvetica-Light,Helvetica" font-size="24.0" fill="#000000" transform="matrix(1.00, 0.00, -0.00, -1.00, 379.3, 239.5)">–</text><text xml:space="preserve" font-family="Helvetica-Light,Helvetica" font-size="24.0" fill="#000000" transform="matrix(1.00, 0.00, -0.00, -1.00, 391.3, 239.5)">G</text><text xml:space="preserve" font-family="Helvetica-Light,Helvetica" font-size="24.0" fill="#000000" transform="matrix(1.00, 0.00, -0.00, -1.00, 410.0, 239.5)">o</text><text xml:space="preserve" font-family="Helvetica-Light,Helvetica" font-size="24.0" fill="#000000" transform="matrix(1.00, 0.00, -0.00, -1.00, 423.3, 239.5)">o</text><text xml:space="preserve" font-family="Helvetica-Light,Helvetica" font-size="24.0" fill="#000000" transform="matrix(1.00, 0.00, -0.00, -1.00, 436.7, 239.5)">g</text><text xml:space="preserve" font-family="Helvetica-Light,Helvetica" font-size="24.0" fill="#000000" transform="matrix(1.00, 0.00, -0.00, -1.00, 451.3, 239.5)">l</text><text xml:space="preserve" font-family="Helvetica-Light,Helvetica" font-size="24.0" fill="#000000" transform="matrix(1.00, 0.00, -0.00, -1.00, 456.7, 239.5)">e</text><text xml:space="preserve" font-family="Helvetica-Light,Helvetica" font-size="24.0" fill="#000000" transform="matrix(1.00, 0.00, -0.00, -1.00, 470.0, 239.5)"> </text><text xml:space="preserve" font-family="Helvetica-Light,Helvetica" font-size="24.0" fill="#000000" transform="matrix(1.00, 0.00, -0.00, -1.00, 476.7, 239.5)">M</text><text xml:space="preserve" font-family="Helvetica-Light,Helvetica" font-size="24.0" fill="#000000" transform="matrix(1.00, 0.00, -0.00, -1.00, 496.7, 239.5)">a</text><text xml:space="preserve" font-family="Helvetica-Light,Helvetica" font-size="24.0" fill="#000000" transform="matrix(1.00, 0.00, -0.00, -1.00, 510.0, 239.5)">t</text><text xml:space="preserve" font-family="Helvetica-Light,Helvetica" font-size="24.0" fill="#000000" transform="matrix(1.00, 0.00, -0.00, -1.00, 516.7, 239.5)">e</text><text xml:space="preserve" font-family="Helvetica-Light,Helvetica" font-size="24.0" fill="#000000" transform="matrix(1.00, 0.00, -0.00, -1.00, 530.0, 239.5)">r</text><text xml:space="preserve" font-family="Helvetica-Light,Helvetica" font-size="24.0" fill="#000000" transform="matrix(1.00, 0.00, -0.00, -1.00, 538.0, 239.5)">i</text><text xml:space="preserve" font-family="Helvetica-Light,Helvetica" font-size="24.0" fill="#000000" transform="matrix(1.00, 0.00, -0.00, -1.00, 543.3, 239.5)">a</text><text xml:space="preserve" font-family="Helvetica-Light,Helvetica" font-size="24.0" fill="#000000" transform="matrix(1.00, 0.00, -0.00, -1.00, 556.7, 239.5)">l</text><text xml:space="preserve" font-family="Helvetica-Light,Helvetica" font-size="24.0" fill="#000000" transform="matrix(1.00, 0.00, -0.00, -1.00, 562.0, 239.5)"> </text><text xml:space="preserve" font-family="Helvetica-Light,Helvetica" font-size="24.0" fill="#000000" transform="matrix(1.00, 0.00, -0.00, -1.00, 568.7, 239.5)">D</text><text xml:space="preserve" font-family="Helvetica-Light,Helvetica" font-size="24.0" fill="#000000" transform="matrix(1.00, 0.00, -0.00, -1.00, 586.0, 239.5)">e</text><text xml:space="preserve" font-family="Helvetica-Light,Helvetica" font-size="24.0" fill="#000000" transform="matrix(1.00, 0.00, -0.00, -1.00, 599.4, 239.5)">s</text><text xml:space="preserve" font-family="Helvetica-Light,Helvetica" font-size="24.0" fill="#000000" transform="matrix(1.00, 0.00, -0.00, -1.00, 611.4, 239.5)">i</text><text xml:space="preserve" font-family="Helvetica-Light,Helvetica" font-size="24.0" fill="#000000" transform="matrix(1.00, 0.00, -0.00, -1.00, 616.7, 239.5)">g</text><text xml:space="preserve" font-family="Helvetica-Light,Helvetica" font-size="24.0" fill="#000000" transform="matrix(1.00, 0.00, -0.00, -1.00, 631.4, 239.5)">n</text><text xml:space="preserve" font-family="Helvetica-LightOblique,Helvetica" font-style="italic" font-size="38.0" fill="#000000" transform="matrix(1.00, 0.00, -0.00, -1.00, 122.7, 459.7)">“</text><text xml:space="preserve" font-family="Helvetica-LightOblique,Helvetica" font-style="italic" font-size="38.0" fill="#000000" transform="matrix(1.00, 0.00, -0.00, -1.00, 137.4, 459.7)">R</text><text xml:space="preserve" font-family="Helvetica-LightOblique,Helvetica" font-style="italic" font-size="38.0" fill="#000000" transform="matrix(1.00, 0.00, -0.00, -1.00, 162.8, 459.7)">e</text><text xml:space="preserve" font-family="Helvetica-LightOblique,Helvetica" font-style="italic" font-size="38.0" fill="#000000" transform="matrix(1.00, 0.00, -0.00, -1.00, 183.9, 459.7)">s</text><text xml:space="preserve" font-family="Helvetica-LightOblique,Helvetica" font-style="italic" font-size="38.0" fill="#000000" transform="matrix(1.00, 0.00, -0.00, -1.00, 202.9, 459.7)">p</text><text xml:space="preserve" font-family="Helvetica-LightOblique,Helvetica" font-style="italic" font-size="38.0" fill="#000000" transform="matrix(1.00, 0.00, -0.00, -1.00, 226.1, 459.7)">o</text><text xml:space="preserve" font-family="Helvetica-LightOblique,Helvetica" font-style="italic" font-size="38.0" fill="#000000" transform="matrix(1.00, 0.00, -0.00, -1.00, 247.3, 459.7)">n</text><text xml:space="preserve" font-family="Helvetica-LightOblique,Helvetica" font-style="italic" font-size="38.0" fill="#000000" transform="matrix(1.00, 0.00, -0.00, -1.00, 268.4, 459.7)">s</text><text xml:space="preserve" font-family="Helvetica-LightOblique,Helvetica" font-style="italic" font-size="38.0" fill="#000000" transform="matrix(1.00, 0.00, -0.00, -1.00, 287.4, 459.7)">i</text><text xml:space="preserve" font-family="Helvetica-LightOblique,Helvetica" font-style="italic" font-size="38.0" fill="#000000" transform="matrix(1.00, 0.00, -0.00, -1.00, 295.8, 459.7)">v</text><text xml:space="preserve" font-family="Helvetica-LightOblique,Helvetica" font-style="italic" font-size="38.0" fill="#000000" transform="matrix(1.00, 0.00, -0.00, -1.00, 314.8, 459.7)">e</text><text xml:space="preserve" font-family="Helvetica-LightOblique,Helvetica" font-style="italic" font-size="38.0" fill="#000000" transform="matrix(1.00, 0.00, -0.00, -1.00, 336.0, 459.7)"> </text><text xml:space="preserve" font-family="Helvetica-LightOblique,Helvetica" font-style="italic" font-size="38.0" fill="#000000" transform="matrix(1.00, 0.00, -0.00, -1.00, 346.5, 459.7)">i</text><text xml:space="preserve" font-family="Helvetica-LightOblique,Helvetica" font-style="italic" font-size="38.0" fill="#000000" transform="matrix(1.00, 0.00, -0.00, -1.00, 355.0, 459.7)">n</text><text xml:space="preserve" font-family="Helvetica-LightOblique,Helvetica" font-style="italic" font-size="38.0" fill="#000000" transform="matrix(1.00, 0.00, -0.00, -1.00, 376.1, 459.7)">t</text><text xml:space="preserve" font-family="Helvetica-LightOblique,Helvetica" font-style="italic" font-size="38.0" fill="#000000" transform="matrix(1.00, 0.00, -0.00, -1.00, 386.6, 459.7)">e</text><text xml:space="preserve" font-family="Helvetica-LightOblique,Helvetica" font-style="italic" font-size="38.0" fill="#000000" transform="matrix(1.00, 0.00, -0.00, -1.00, 407.8, 459.7)">r</text><text xml:space="preserve" font-family="Helvetica-LightOblique,Helvetica" font-style="italic" font-size="38.0" fill="#000000" transform="matrix(1.00, 0.00, -0.00, -1.00, 420.4, 459.7)">a</text><text xml:space="preserve" font-family="Helvetica-LightOblique,Helvetica" font-style="italic" font-size="38.0" fill="#000000" transform="matrix(1.00, 0.00, -0.00, -1.00, 441.6, 459.7)">c</text><text xml:space="preserve" font-family="Helvetica-LightOblique,Helvetica" font-style="italic" font-size="38.0" fill="#000000" transform="matrix(1.00, 0.00, -0.00, -1.00, 462.7, 459.7)">t</text><text xml:space="preserve" font-family="Helvetica-LightOblique,Helvetica" font-style="italic" font-size="38.0" fill="#000000" transform="matrix(1.00, 0.00, -0.00, -1.00, 473.2, 459.7)">i</text><text xml:space="preserve" font-family="Helvetica-LightOblique,Helvetica" font-style="italic" font-size="38.0" fill="#000000" transform="matrix(1.00, 0.00, -0.00, -1.00, 481.7, 459.7)">o</text><text xml:space="preserve" font-family="Helvetica-LightOblique,Helvetica" font-style="italic" font-size="38.0" fill="#000000" transform="matrix(1.00, 0.00, -0.00, -1.00, 502.8, 459.7)">n</text><text xml:space="preserve" font-family="Helvetica-LightOblique,Helvetica" font-style="italic" font-size="38.0" fill="#000000" transform="matrix(1.00, 0.00, -0.00, -1.00, 523.9, 459.7)"> </text><text xml:space="preserve" font-family="Helvetica-BoldOblique,Helvetica" font-style="italic" font-weight="bold" font-size="38.0" fill="#000000" transform="matrix(1.00, 0.00, -0.00, -1.00, 534.5, 459.7)">e</text><text xml:space="preserve" font-family="Helvetica-BoldOblique,Helvetica" font-style="italic" font-weight="bold" font-size="38.0" fill="#000000" transform="matrix(1.00, 0.00, -0.00, -1.00, 555.6, 459.7)">l</text><text xml:space="preserve" font-family="Helvetica-BoldOblique,Helvetica" font-style="italic" font-weight="bold" font-size="38.0" fill="#000000" transform="matrix(1.00, 0.00, -0.00, -1.00, 566.2, 459.7)">e</text><text xml:space="preserve" font-family="Helvetica-BoldOblique,Helvetica" font-style="italic" font-weight="bold" font-size="38.0" fill="#000000" transform="matrix(1.00, 0.00, -0.00, -1.00, 587.3, 459.7)">v</text><text xml:space="preserve" font-family="Helvetica-BoldOblique,Helvetica" font-style="italic" font-weight="bold" font-size="38.0" fill="#000000" transform="matrix(1.00, 0.00, -0.00, -1.00, 608.5, 459.7)">a</text><text xml:space="preserve" font-family="Helvetica-BoldOblique,Helvetica" font-style="italic" font-weight="bold" font-size="38.0" fill="#000000" transform="matrix(1.00, 0.00, -0.00, -1.00, 629.6, 459.7)">t</text><text xml:space="preserve" font-family="Helvetica-BoldOblique,Helvetica" font-style="italic" font-weight="bold" font-size="38.0" fill="#000000" transform="matrix(1.00, 0.00, -0.00, -1.00, 642.3, 459.7)">e</text><text xml:space="preserve" font-family="Helvetica-BoldOblique,Helvetica" font-style="italic" font-weight="bold" font-size="38.0" fill="#000000" transform="matrix(1.00, 0.00, -0.00, -1.00, 663.4, 459.7)">s</text><text xml:space="preserve" font-family="Helvetica-LightOblique,Helvetica" font-style="italic" font-size="38.0" fill="#000000" transform="matrix(1.00, 0.00, -0.00, -1.00, 684.5, 459.7)"> </text><text xml:space="preserve" font-family="Helvetica-LightOblique,Helvetica" font-style="italic" font-size="38.0" fill="#000000" transform="matrix(1.00, 0.00, -0.00, -1.00, 695.1, 459.7)">a</text><text xml:space="preserve" font-family="Helvetica-LightOblique,Helvetica" font-style="italic" font-size="38.0" fill="#000000" transform="matrix(1.00, 0.00, -0.00, -1.00, 716.2, 459.7)">n</text><text xml:space="preserve" font-family="Helvetica-LightOblique,Helvetica" font-style="italic" font-size="38.0" fill="#000000" transform="matrix(1.00, 0.00, -0.00, -1.00, 737.3, 459.7)"> </text><text xml:space="preserve" font-family="Helvetica-LightOblique,Helvetica" font-style="italic" font-size="38.0" fill="#000000" transform="matrix(1.00, 0.00, -0.00, -1.00, 747.9, 459.7)">a</text><text xml:space="preserve" font-family="Helvetica-LightOblique,Helvetica" font-style="italic" font-size="38.0" fill="#000000" transform="matrix(1.00, 0.00, -0.00, -1.00, 769.0, 459.7)">p</text><text xml:space="preserve" font-family="Helvetica-LightOblique,Helvetica" font-style="italic" font-size="38.0" fill="#000000" transform="matrix(1.00, 0.00, -0.00, -1.00, 792.2, 459.7)">p</text><text xml:space="preserve" font-family="Helvetica-LightOblique,Helvetica" font-style="italic" font-size="38.0" fill="#000000" transform="matrix(1.00, 0.00, -0.00, -1.00, 815.5, 459.7)"> </text><text xml:space="preserve" font-family="Helvetica-LightOblique,Helvetica" font-style="italic" font-size="38.0" fill="#000000" transform="matrix(1.00, 0.00, -0.00, -1.00, 826.0, 459.7)">f</text><text xml:space="preserve" font-family="Helvetica-LightOblique,Helvetica" font-style="italic" font-size="38.0" fill="#000000" transform="matrix(1.00, 0.00, -0.00, -1.00, 836.6, 459.7)">r</text><text xml:space="preserve" font-family="Helvetica-LightOblique,Helvetica" font-style="italic" font-size="38.0" fill="#000000" transform="matrix(1.00, 0.00, -0.00, -1.00, 848.6, 459.7)">o</text><text xml:space="preserve" font-family="Helvetica-LightOblique,Helvetica" font-style="italic" font-size="38.0" fill="#000000" transform="matrix(1.00, 0.00, -0.00, -1.00, 869.7, 459.7)">m</text><text xml:space="preserve" font-family="Helvetica-LightOblique,Helvetica" font-style="italic" font-size="38.0" fill="#000000" transform="matrix(1.00, 0.00, -0.00, -1.00, 901.3, 459.7)"> </text><text xml:space="preserve" font-family="Helvetica-LightOblique,Helvetica" font-style="italic" font-size="38.0" fill="#000000" transform="matrix(1.00, 0.00, -0.00, -1.00, 104.4, 413.7)">s</text><text xml:space="preserve" font-family="Helvetica-LightOblique,Helvetica" font-style="italic" font-size="38.0" fill="#000000" transform="matrix(1.00, 0.00, -0.00, -1.00, 123.4, 413.7)">o</text><text xml:space="preserve" font-family="Helvetica-LightOblique,Helvetica" font-style="italic" font-size="38.0" fill="#000000" transform="matrix(1.00, 0.00, -0.00, -1.00, 144.5, 413.7)">m</text><text xml:space="preserve" font-family="Helvetica-LightOblique,Helvetica" font-style="italic" font-size="38.0" fill="#000000" transform="matrix(1.00, 0.00, -0.00, -1.00, 176.2, 413.7)">e</text><text xml:space="preserve" font-family="Helvetica-LightOblique,Helvetica" font-style="italic" font-size="38.0" fill="#000000" transform="matrix(1.00, 0.00, -0.00, -1.00, 197.3, 413.7)">t</text><text xml:space="preserve" font-family="Helvetica-LightOblique,Helvetica" font-style="italic" font-size="38.0" fill="#000000" transform="matrix(1.00, 0.00, -0.00, -1.00, 207.9, 413.7)">h</text><text xml:space="preserve" font-family="Helvetica-LightOblique,Helvetica" font-style="italic" font-size="38.0" fill="#000000" transform="matrix(1.00, 0.00, -0.00, -1.00, 229.0, 413.7)">i</text><text xml:space="preserve" font-family="Helvetica-LightOblique,Helvetica" font-style="italic" font-size="38.0" fill="#000000" transform="matrix(1.00, 0.00, -0.00, -1.00, 237.4, 413.7)">n</text><text xml:space="preserve" font-family="Helvetica-LightOblique,Helvetica" font-style="italic" font-size="38.0" fill="#000000" transform="matrix(1.00, 0.00, -0.00, -1.00, 258.6, 413.7)">g</text><text xml:space="preserve" font-family="Helvetica-LightOblique,Helvetica" font-style="italic" font-size="38.0" fill="#000000" transform="matrix(1.00, 0.00, -0.00, -1.00, 281.8, 413.7)"> </text><text xml:space="preserve" font-family="Helvetica-LightOblique,Helvetica" font-style="italic" font-size="38.0" fill="#000000" transform="matrix(1.00, 0.00, -0.00, -1.00, 292.3, 413.7)">t</text><text xml:space="preserve" font-family="Helvetica-LightOblique,Helvetica" font-style="italic" font-size="38.0" fill="#000000" transform="matrix(1.00, 0.00, -0.00, -1.00, 302.9, 413.7)">h</text><text xml:space="preserve" font-family="Helvetica-LightOblique,Helvetica" font-style="italic" font-size="38.0" fill="#000000" transform="matrix(1.00, 0.00, -0.00, -1.00, 324.0, 413.7)">a</text><text xml:space="preserve" font-family="Helvetica-LightOblique,Helvetica" font-style="italic" font-size="38.0" fill="#000000" transform="matrix(1.00, 0.00, -0.00, -1.00, 345.2, 413.7)">t</text><text xml:space="preserve" font-family="Helvetica-LightOblique,Helvetica" font-style="italic" font-size="38.0" fill="#000000" transform="matrix(1.00, 0.00, -0.00, -1.00, 355.7, 413.7)"> </text><text xml:space="preserve" font-family="Helvetica-BoldOblique,Helvetica" font-style="italic" font-weight="bold" font-size="38.0" fill="#000000" transform="matrix(1.00, 0.00, -0.00, -1.00, 366.3, 413.7)">d</text><text xml:space="preserve" font-family="Helvetica-BoldOblique,Helvetica" font-style="italic" font-weight="bold" font-size="38.0" fill="#000000" transform="matrix(1.00, 0.00, -0.00, -1.00, 389.5, 413.7)">e</text><text xml:space="preserve" font-family="Helvetica-BoldOblique,Helvetica" font-style="italic" font-weight="bold" font-size="38.0" fill="#000000" transform="matrix(1.00, 0.00, -0.00, -1.00, 410.6, 413.7)">l</text><text xml:space="preserve" font-family="Helvetica-BoldOblique,Helvetica" font-style="italic" font-weight="bold" font-size="38.0" fill="#000000" transform="matrix(1.00, 0.00, -0.00, -1.00, 421.2, 413.7)">i</text><text xml:space="preserve" font-family="Helvetica-BoldOblique,Helvetica" font-style="italic" font-weight="bold" font-size="38.0" fill="#000000" transform="matrix(1.00, 0.00, -0.00, -1.00, 431.7, 413.7)">v</text><text xml:space="preserve" font-family="Helvetica-BoldOblique,Helvetica" font-style="italic" font-weight="bold" font-size="38.0" fill="#000000" transform="matrix(1.00, 0.00, -0.00, -1.00, 452.9, 413.7)">e</text><text xml:space="preserve" font-family="Helvetica-BoldOblique,Helvetica" font-style="italic" font-weight="bold" font-size="38.0" fill="#000000" transform="matrix(1.00, 0.00, -0.00, -1.00, 474.0, 413.7)">r</text><text xml:space="preserve" font-family="Helvetica-BoldOblique,Helvetica" font-style="italic" font-weight="bold" font-size="38.0" fill="#000000" transform="matrix(1.00, 0.00, -0.00, -1.00, 488.8, 413.7)">s</text><text xml:space="preserve" font-family="Helvetica-BoldOblique,Helvetica" font-style="italic" font-weight="bold" font-size="38.0" fill="#000000" transform="matrix(1.00, 0.00, -0.00, -1.00, 510.0, 413.7)"> </text><text xml:space="preserve" font-family="Helvetica-BoldOblique,Helvetica" font-style="italic" font-weight="bold" font-size="38.0" fill="#000000" transform="matrix(1.00, 0.00, -0.00, -1.00, 520.5, 413.7)">i</text><text xml:space="preserve" font-family="Helvetica-BoldOblique,Helvetica" font-style="italic" font-weight="bold" font-size="38.0" fill="#000000" transform="matrix(1.00, 0.00, -0.00, -1.00, 531.1, 413.7)">n</text><text xml:space="preserve" font-family="Helvetica-BoldOblique,Helvetica" font-style="italic" font-weight="bold" font-size="38.0" fill="#000000" transform="matrix(1.00, 0.00, -0.00, -1.00, 554.3, 413.7)">f</text><text xml:space="preserve" font-family="Helvetica-BoldOblique,Helvetica" font-style="italic" font-weight="bold" font-size="38.0" fill="#000000" transform="matrix(1.00, 0.00, -0.00, -1.00, 566.9, 413.7)">o</text><text xml:space="preserve" font-family="Helvetica-BoldOblique,Helvetica" font-style="italic" font-weight="bold" font-size="38.0" fill="#000000" transform="matrix(1.00, 0.00, -0.00, -1.00, 590.1, 413.7)">r</text><text xml:space="preserve" font-family="Helvetica-BoldOblique,Helvetica" font-style="italic" font-weight="bold" font-size="38.0" fill="#000000" transform="matrix(1.00, 0.00, -0.00, -1.00, 604.9, 413.7)">m</text><text xml:space="preserve" font-family="Helvetica-BoldOblique,Helvetica" font-style="italic" font-weight="bold" font-size="38.0" fill="#000000" transform="matrix(1.00, 0.00, -0.00, -1.00, 638.7, 413.7)">a</text><text xml:space="preserve" font-family="Helvetica-BoldOblique,Helvetica" font-style="italic" font-weight="bold" font-size="38.0" fill="#000000" transform="matrix(1.00, 0.00, -0.00, -1.00, 659.9, 413.7)">t</text><text xml:space="preserve" font-family="Helvetica-BoldOblique,Helvetica" font-style="italic" font-weight="bold" font-size="38.0" fill="#000000" transform="matrix(1.00, 0.00, -0.00, -1.00, 672.5, 413.7)">i</text><text xml:space="preserve" font-family="Helvetica-BoldOblique,Helvetica" font-style="italic" font-weight="bold" font-size="38.0" fill="#000000" transform="matrix(1.00, 0.00, -0.00, -1.00, 683.1, 413.7)">o</text><text xml:space="preserve" font-family="Helvetica-BoldOblique,Helvetica" font-style="italic" font-weight="bold" font-size="38.0" fill="#000000" transform="matrix(1.00, 0.00, -0.00, -1.00, 706.3, 413.7)">n</text><text xml:space="preserve" font-family="Helvetica-LightOblique,Helvetica" font-style="italic" font-size="38.0" fill="#000000" transform="matrix(1.00, 0.00, -0.00, -1.00, 729.5, 413.7)"> </text><text xml:space="preserve" font-family="Helvetica-LightOblique,Helvetica" font-style="italic" font-size="38.0" fill="#000000" transform="matrix(1.00, 0.00, -0.00, -1.00, 740.0, 413.7)">t</text><text xml:space="preserve" font-family="Helvetica-LightOblique,Helvetica" font-style="italic" font-size="38.0" fill="#000000" transform="matrix(1.00, 0.00, -0.00, -1.00, 750.6, 413.7)">o</text><text xml:space="preserve" font-family="Helvetica-LightOblique,Helvetica" font-style="italic" font-size="38.0" fill="#000000" transform="matrix(1.00, 0.00, -0.00, -1.00, 771.7, 413.7)"> </text><text xml:space="preserve" font-family="Helvetica-LightOblique,Helvetica" font-style="italic" font-size="38.0" fill="#000000" transform="matrix(1.00, 0.00, -0.00, -1.00, 782.3, 413.7)">t</text><text xml:space="preserve" font-family="Helvetica-LightOblique,Helvetica" font-style="italic" font-size="38.0" fill="#000000" transform="matrix(1.00, 0.00, -0.00, -1.00, 792.9, 413.7)">h</text><text xml:space="preserve" font-family="Helvetica-LightOblique,Helvetica" font-style="italic" font-size="38.0" fill="#000000" transform="matrix(1.00, 0.00, -0.00, -1.00, 814.0, 413.7)">e</text><text xml:space="preserve" font-family="Helvetica-LightOblique,Helvetica" font-style="italic" font-size="38.0" fill="#000000" transform="matrix(1.00, 0.00, -0.00, -1.00, 835.1, 413.7)"> </text><text xml:space="preserve" font-family="Helvetica-LightOblique,Helvetica" font-style="italic" font-size="38.0" fill="#000000" transform="matrix(1.00, 0.00, -0.00, -1.00, 845.7, 413.7)">u</text><text xml:space="preserve" font-family="Helvetica-LightOblique,Helvetica" font-style="italic" font-size="38.0" fill="#000000" transform="matrix(1.00, 0.00, -0.00, -1.00, 866.8, 413.7)">s</text><text xml:space="preserve" font-family="Helvetica-LightOblique,Helvetica" font-style="italic" font-size="38.0" fill="#000000" transform="matrix(1.00, 0.00, -0.00, -1.00, 885.8, 413.7)">e</text><text xml:space="preserve" font-family="Helvetica-LightOblique,Helvetica" font-style="italic" font-size="38.0" fill="#000000" transform="matrix(1.00, 0.00, -0.00, -1.00, 906.9, 413.7)">r</text><text xml:space="preserve" font-family="Helvetica-LightOblique,Helvetica" font-style="italic" font-size="38.0" fill="#000000" transform="matrix(1.00, 0.00, -0.00, -1.00, 919.6, 413.7)"> </text><text xml:space="preserve" font-family="Helvetica-LightOblique,Helvetica" font-style="italic" font-size="38.0" fill="#000000" transform="matrix(1.00, 0.00, -0.00, -1.00, 108.9, 367.7)">u</text><text xml:space="preserve" font-family="Helvetica-LightOblique,Helvetica" font-style="italic" font-size="38.0" fill="#000000" transform="matrix(1.00, 0.00, -0.00, -1.00, 130.1, 367.7)">p</text><text xml:space="preserve" font-family="Helvetica-LightOblique,Helvetica" font-style="italic" font-size="38.0" fill="#000000" transform="matrix(1.00, 0.00, -0.00, -1.00, 153.3, 367.7)">o</text><text xml:space="preserve" font-family="Helvetica-LightOblique,Helvetica" font-style="italic" font-size="38.0" fill="#000000" transform="matrix(1.00, 0.00, -0.00, -1.00, 174.4, 367.7)">n</text><text xml:space="preserve" font-family="Helvetica-LightOblique,Helvetica" font-style="italic" font-size="38.0" fill="#000000" transform="matrix(1.00, 0.00, -0.00, -1.00, 195.5, 367.7)"> </text><text xml:space="preserve" font-family="Helvetica-LightOblique,Helvetica" font-style="italic" font-size="38.0" fill="#000000" transform="matrix(1.00, 0.00, -0.00, -1.00, 206.1, 367.7)">r</text><text xml:space="preserve" font-family="Helvetica-LightOblique,Helvetica" font-style="italic" font-size="38.0" fill="#000000" transform="matrix(1.00, 0.00, -0.00, -1.00, 218.1, 367.7)">e</text><text xml:space="preserve" font-family="Helvetica-LightOblique,Helvetica" font-style="italic" font-size="38.0" fill="#000000" transform="matrix(1.00, 0.00, -0.00, -1.00, 239.2, 367.7)">q</text><text xml:space="preserve" font-family="Helvetica-LightOblique,Helvetica" font-style="italic" font-size="38.0" fill="#000000" transform="matrix(1.00, 0.00, -0.00, -1.00, 262.4, 367.7)">u</text><text xml:space="preserve" font-family="Helvetica-LightOblique,Helvetica" font-style="italic" font-size="38.0" fill="#000000" transform="matrix(1.00, 0.00, -0.00, -1.00, 283.6, 367.7)">e</text><text xml:space="preserve" font-family="Helvetica-LightOblique,Helvetica" font-style="italic" font-size="38.0" fill="#000000" transform="matrix(1.00, 0.00, -0.00, -1.00, 304.7, 367.7)">s</text><text xml:space="preserve" font-family="Helvetica-LightOblique,Helvetica" font-style="italic" font-size="38.0" fill="#000000" transform="matrix(1.00, 0.00, -0.00, -1.00, 323.7, 367.7)">t</text><text xml:space="preserve" font-family="Helvetica-LightOblique,Helvetica" font-style="italic" font-size="38.0" fill="#000000" transform="matrix(1.00, 0.00, -0.00, -1.00, 334.2, 367.7)"> </text><text xml:space="preserve" font-family="Helvetica-LightOblique,Helvetica" font-style="italic" font-size="38.0" fill="#000000" transform="matrix(1.00, 0.00, -0.00, -1.00, 344.8, 367.7)">t</text><text xml:space="preserve" font-family="Helvetica-LightOblique,Helvetica" font-style="italic" font-size="38.0" fill="#000000" transform="matrix(1.00, 0.00, -0.00, -1.00, 355.4, 367.7)">o</text><text xml:space="preserve" font-family="Helvetica-LightOblique,Helvetica" font-style="italic" font-size="38.0" fill="#000000" transform="matrix(1.00, 0.00, -0.00, -1.00, 376.5, 367.7)"> </text><text xml:space="preserve" font-family="Helvetica-LightOblique,Helvetica" font-style="italic" font-size="38.0" fill="#000000" transform="matrix(1.00, 0.00, -0.00, -1.00, 387.1, 367.7)">s</text><text xml:space="preserve" font-family="Helvetica-LightOblique,Helvetica" font-style="italic" font-size="38.0" fill="#000000" transform="matrix(1.00, 0.00, -0.00, -1.00, 406.1, 367.7)">o</text><text xml:space="preserve" font-family="Helvetica-LightOblique,Helvetica" font-style="italic" font-size="38.0" fill="#000000" transform="matrix(1.00, 0.00, -0.00, -1.00, 427.2, 367.7)">m</text><text xml:space="preserve" font-family="Helvetica-LightOblique,Helvetica" font-style="italic" font-size="38.0" fill="#000000" transform="matrix(1.00, 0.00, -0.00, -1.00, 458.8, 367.7)">e</text><text xml:space="preserve" font-family="Helvetica-LightOblique,Helvetica" font-style="italic" font-size="38.0" fill="#000000" transform="matrix(1.00, 0.00, -0.00, -1.00, 480.0, 367.7)">t</text><text xml:space="preserve" font-family="Helvetica-LightOblique,Helvetica" font-style="italic" font-size="38.0" fill="#000000" transform="matrix(1.00, 0.00, -0.00, -1.00, 490.5, 367.7)">h</text><text xml:space="preserve" font-family="Helvetica-LightOblique,Helvetica" font-style="italic" font-size="38.0" fill="#000000" transform="matrix(1.00, 0.00, -0.00, -1.00, 511.7, 367.7)">i</text><text xml:space="preserve" font-family="Helvetica-LightOblique,Helvetica" font-style="italic" font-size="38.0" fill="#000000" transform="matrix(1.00, 0.00, -0.00, -1.00, 520.1, 367.7)">n</text><text xml:space="preserve" font-family="Helvetica-LightOblique,Helvetica" font-style="italic" font-size="38.0" fill="#000000" transform="matrix(1.00, 0.00, -0.00, -1.00, 541.2, 367.7)">g</text><text xml:space="preserve" font-family="Helvetica-LightOblique,Helvetica" font-style="italic" font-size="38.0" fill="#000000" transform="matrix(1.00, 0.00, -0.00, -1.00, 564.5, 367.7)"> </text><text xml:space="preserve" font-family="Helvetica-LightOblique,Helvetica" font-style="italic" font-size="38.0" fill="#000000" transform="matrix(1.00, 0.00, -0.00, -1.00, 575.0, 367.7)">t</text><text xml:space="preserve" font-family="Helvetica-LightOblique,Helvetica" font-style="italic" font-size="38.0" fill="#000000" transform="matrix(1.00, 0.00, -0.00, -1.00, 585.6, 367.7)">h</text><text xml:space="preserve" font-family="Helvetica-LightOblique,Helvetica" font-style="italic" font-size="38.0" fill="#000000" transform="matrix(1.00, 0.00, -0.00, -1.00, 606.7, 367.7)">a</text><text xml:space="preserve" font-family="Helvetica-LightOblique,Helvetica" font-style="italic" font-size="38.0" fill="#000000" transform="matrix(1.00, 0.00, -0.00, -1.00, 627.8, 367.7)">t</text><text xml:space="preserve" font-family="Helvetica-LightOblique,Helvetica" font-style="italic" font-size="38.0" fill="#000000" transform="matrix(1.00, 0.00, -0.00, -1.00, 638.4, 367.7)"> </text><text xml:space="preserve" font-family="Helvetica-BoldOblique,Helvetica" font-style="italic" font-weight="bold" font-size="38.0" fill="#000000" transform="matrix(1.00, 0.00, -0.00, -1.00, 649.0, 367.7)">c</text><text xml:space="preserve" font-family="Helvetica-BoldOblique,Helvetica" font-style="italic" font-weight="bold" font-size="38.0" fill="#000000" transform="matrix(1.00, 0.00, -0.00, -1.00, 670.1, 367.7)">o</text><text xml:space="preserve" font-family="Helvetica-BoldOblique,Helvetica" font-style="italic" font-weight="bold" font-size="38.0" fill="#000000" transform="matrix(1.00, 0.00, -0.00, -1.00, 693.3, 367.7)">m</text><text xml:space="preserve" font-family="Helvetica-BoldOblique,Helvetica" font-style="italic" font-weight="bold" font-size="38.0" fill="#000000" transform="matrix(1.00, 0.00, -0.00, -1.00, 727.1, 367.7)">m</text><text xml:space="preserve" font-family="Helvetica-BoldOblique,Helvetica" font-style="italic" font-weight="bold" font-size="38.0" fill="#000000" transform="matrix(1.00, 0.00, -0.00, -1.00, 760.9, 367.7)">u</text><text xml:space="preserve" font-family="Helvetica-BoldOblique,Helvetica" font-style="italic" font-weight="bold" font-size="38.0" fill="#000000" transform="matrix(1.00, 0.00, -0.00, -1.00, 784.1, 367.7)">n</text><text xml:space="preserve" font-family="Helvetica-BoldOblique,Helvetica" font-style="italic" font-weight="bold" font-size="38.0" fill="#000000" transform="matrix(1.00, 0.00, -0.00, -1.00, 807.3, 367.7)">i</text><text xml:space="preserve" font-family="Helvetica-BoldOblique,Helvetica" font-style="italic" font-weight="bold" font-size="38.0" fill="#000000" transform="matrix(1.00, 0.00, -0.00, -1.00, 817.9, 367.7)">c</text><text xml:space="preserve" font-family="Helvetica-BoldOblique,Helvetica" font-style="italic" font-weight="bold" font-size="38.0" fill="#000000" transform="matrix(1.00, 0.00, -0.00, -1.00, 839.0, 367.7)">a</text><text xml:space="preserve" font-family="Helvetica-BoldOblique,Helvetica" font-style="italic" font-weight="bold" font-size="38.0" fill="#000000" transform="matrix(1.00, 0.00, -0.00, -1.00, 860.1, 367.7)">t</text><text xml:space="preserve" font-family="Helvetica-BoldOblique,Helvetica" font-style="italic" font-weight="bold" font-size="38.0" fill="#000000" transform="matrix(1.00, 0.00, -0.00, -1.00, 872.8, 367.7)">e</text><text xml:space="preserve" font-family="Helvetica-BoldOblique,Helvetica" font-style="italic" font-weight="bold" font-size="38.0" fill="#000000" transform="matrix(1.00, 0.00, -0.00, -1.00, 893.9, 367.7)">s</text><text xml:space="preserve" font-family="Helvetica-LightOblique,Helvetica" font-style="italic" font-size="38.0" fill="#000000" transform="matrix(1.00, 0.00, -0.00, -1.00, 915.1, 367.7)"> </text><text xml:space="preserve" font-family="Helvetica-LightOblique,Helvetica" font-style="italic" font-size="38.0" fill="#000000" transform="matrix(1.00, 0.00, -0.00, -1.00, 240.3, 321.7)">w</text><text xml:space="preserve" font-family="Helvetica-LightOblique,Helvetica" font-style="italic" font-size="38.0" fill="#000000" transform="matrix(1.00, 0.00, -0.00, -1.00, 267.7, 321.7)">i</text><text xml:space="preserve" font-family="Helvetica-LightOblique,Helvetica" font-style="italic" font-size="38.0" fill="#000000" transform="matrix(1.00, 0.00, -0.00, -1.00, 276.1, 321.7)">t</text><text xml:space="preserve" font-family="Helvetica-LightOblique,Helvetica" font-style="italic" font-size="38.0" fill="#000000" transform="matrix(1.00, 0.00, -0.00, -1.00, 286.7, 321.7)">h</text><text xml:space="preserve" font-family="Helvetica-LightOblique,Helvetica" font-style="italic" font-size="38.0" fill="#000000" transform="matrix(1.00, 0.00, -0.00, -1.00, 307.8, 321.7)"> </text><text xml:space="preserve" font-family="Helvetica-LightOblique,Helvetica" font-style="italic" font-size="38.0" fill="#000000" transform="matrix(1.00, 0.00, -0.00, -1.00, 318.4, 321.7)">t</text><text xml:space="preserve" font-family="Helvetica-LightOblique,Helvetica" font-style="italic" font-size="38.0" fill="#000000" transform="matrix(1.00, 0.00, -0.00, -1.00, 329.0, 321.7)">h</text><text xml:space="preserve" font-family="Helvetica-LightOblique,Helvetica" font-style="italic" font-size="38.0" fill="#000000" transform="matrix(1.00, 0.00, -0.00, -1.00, 350.1, 321.7)">e</text><text xml:space="preserve" font-family="Helvetica-LightOblique,Helvetica" font-style="italic" font-size="38.0" fill="#000000" transform="matrix(1.00, 0.00, -0.00, -1.00, 371.2, 321.7)"> </text><text xml:space="preserve" font-family="Helvetica-LightOblique,Helvetica" font-style="italic" font-size="38.0" fill="#000000" transform="matrix(1.00, 0.00, -0.00, -1.00, 381.8, 321.7)">u</text><text xml:space="preserve" font-family="Helvetica-LightOblique,Helvetica" font-style="italic" font-size="38.0" fill="#000000" transform="matrix(1.00, 0.00, -0.00, -1.00, 402.9, 321.7)">s</text><text xml:space="preserve" font-family="Helvetica-LightOblique,Helvetica" font-style="italic" font-size="38.0" fill="#000000" transform="matrix(1.00, 0.00, -0.00, -1.00, 421.9, 321.7)">e</text><text xml:space="preserve" font-family="Helvetica-LightOblique,Helvetica" font-style="italic" font-size="38.0" fill="#000000" transform="matrix(1.00, 0.00, -0.00, -1.00, 443.0, 321.7)">r</text><text xml:space="preserve" font-family="Helvetica-LightOblique,Helvetica" font-style="italic" font-size="38.0" fill="#000000" transform="matrix(1.00, 0.00, -0.00, -1.00, 455.7, 321.7)"> </text><text xml:space="preserve" font-family="Helvetica-LightOblique,Helvetica" font-style="italic" font-size="38.0" fill="#000000" transform="matrix(1.00, 0.00, -0.00, -1.00, 466.3, 321.7)">i</text><text xml:space="preserve" font-family="Helvetica-LightOblique,Helvetica" font-style="italic" font-size="38.0" fill="#000000" transform="matrix(1.00, 0.00, -0.00, -1.00, 474.7, 321.7)">n</text><text xml:space="preserve" font-family="Helvetica-LightOblique,Helvetica" font-style="italic" font-size="38.0" fill="#000000" transform="matrix(1.00, 0.00, -0.00, -1.00, 495.8, 321.7)"> </text><text xml:space="preserve" font-family="Helvetica-LightOblique,Helvetica" font-style="italic" font-size="38.0" fill="#000000" transform="matrix(1.00, 0.00, -0.00, -1.00, 506.4, 321.7)">a</text><text xml:space="preserve" font-family="Helvetica-LightOblique,Helvetica" font-style="italic" font-size="38.0" fill="#000000" transform="matrix(1.00, 0.00, -0.00, -1.00, 527.5, 321.7)"> </text><text xml:space="preserve" font-family="Helvetica-BoldOblique,Helvetica" font-style="italic" font-weight="bold" font-size="38.0" fill="#000000" transform="matrix(1.00, 0.00, -0.00, -1.00, 538.1, 321.7)">t</text><text xml:space="preserve" font-family="Helvetica-BoldOblique,Helvetica" font-style="italic" font-weight="bold" font-size="38.0" fill="#000000" transform="matrix(1.00, 0.00, -0.00, -1.00, 550.7, 321.7)">a</text><text xml:space="preserve" font-family="Helvetica-BoldOblique,Helvetica" font-style="italic" font-weight="bold" font-size="38.0" fill="#000000" transform="matrix(1.00, 0.00, -0.00, -1.00, 571.9, 321.7)">n</text><text xml:space="preserve" font-family="Helvetica-BoldOblique,Helvetica" font-style="italic" font-weight="bold" font-size="38.0" fill="#000000" transform="matrix(1.00, 0.00, -0.00, -1.00, 595.1, 321.7)">g</text><text xml:space="preserve" font-family="Helvetica-BoldOblique,Helvetica" font-style="italic" font-weight="bold" font-size="38.0" fill="#000000" transform="matrix(1.00, 0.00, -0.00, -1.00, 618.3, 321.7)">i</text><text xml:space="preserve" font-family="Helvetica-BoldOblique,Helvetica" font-style="italic" font-weight="bold" font-size="38.0" fill="#000000" transform="matrix(1.00, 0.00, -0.00, -1.00, 628.8, 321.7)">b</text><text xml:space="preserve" font-family="Helvetica-BoldOblique,Helvetica" font-style="italic" font-weight="bold" font-size="38.0" fill="#000000" transform="matrix(1.00, 0.00, -0.00, -1.00, 652.0, 321.7)">l</text><text xml:space="preserve" font-family="Helvetica-BoldOblique,Helvetica" font-style="italic" font-weight="bold" font-size="38.0" fill="#000000" transform="matrix(1.00, 0.00, -0.00, -1.00, 662.6, 321.7)">e</text><text xml:space="preserve" font-family="Helvetica-LightOblique,Helvetica" font-style="italic" font-size="38.0" fill="#000000" transform="matrix(1.00, 0.00, -0.00, -1.00, 683.8, 321.7)"> </text><text xml:space="preserve" font-family="Helvetica-LightOblique,Helvetica" font-style="italic" font-size="38.0" fill="#000000" transform="matrix(1.00, 0.00, -0.00, -1.00, 694.3, 321.7)">w</text><text xml:space="preserve" font-family="Helvetica-LightOblique,Helvetica" font-style="italic" font-size="38.0" fill="#000000" transform="matrix(1.00, 0.00, -0.00, -1.00, 721.8, 321.7)">a</text><text xml:space="preserve" font-family="Helvetica-LightOblique,Helvetica" font-style="italic" font-size="38.0" fill="#000000" transform="matrix(1.00, 0.00, -0.00, -1.00, 742.9, 321.7)">y</text><text xml:space="preserve" font-family="Helvetica-LightOblique,Helvetica" font-style="italic" font-size="38.0" fill="#000000" transform="matrix(1.00, 0.00, -0.00, -1.00, 758.4, 321.7)">.</text><text xml:space="preserve" font-family="Helvetica-LightOblique,Helvetica" font-style="italic" font-size="38.0" fill="#000000" transform="matrix(1.00, 0.00, -0.00, -1.00, 768.9, 321.7)">”</text></g></svg>