<?xml version="1.0" encoding="UTF-8" standalone="no"?><svg xmlns="http://www.w3.org/2000/svg" xmlns:xlink="http://www.w3.org/1999/xlink" clip-rule="evenodd" stroke-miterlimit="10" viewBox="0 0 1024 768"><desc>SVG generated by Keynote</desc><defs></defs><g transform="matrix(1.00, 0.00, -0.00, -1.00, 0.0, 768.0)"><path d="M 0.0 768.0 L 1024.0 768.0 L 1024.0 0.0 L 0.0 0.0 Z M 0.0 768.0 " fill="#F9F9F9"></path><text xml:space="preserve" font-family="Helvetica-Light,Helvetica" font-size="25.0" fill="#000000" transform="matrix(1.00, 0.00, -0.00, -1.00, 122.4, 572.9)">T</text><text xml:space="preserve" font-family="Helvetica-Light,Helvetica" font-size="25.0" fill="#000000" transform="matrix(1.00, 0.00, -0.00, -1.00, 133.6, 572.9)">o</text><text xml:space="preserve" font-family="Helvetica-Light,Helvetica" font-size="25.0" fill="#000000" transform="matrix(1.00, 0.00, -0.00, -1.00, 147.5, 572.9)">u</text><text xml:space="preserve" font-family="Helvetica-Light,Helvetica" font-size="25.0" fill="#000000" transform="matrix(1.00, 0.00, -0.00, -1.00, 161.4, 572.9)">c</text><text xml:space="preserve" font-family="Helvetica-Light,Helvetica" font-size="25.0" fill="#000000" transform="matrix(1.00, 0.00, -0.00, -1.00, 175.3, 572.9)">h</text><text xml:space="preserve" font-family="Helvetica-Light,Helvetica" font-size="25.0" fill="#000000" transform="matrix(1.00, 0.00, -0.00, -1.00, 189.2, 572.9)"> </text><text xml:space="preserve" font-family="Helvetica-Light,Helvetica" font-size="25.0" fill="#000000" transform="matrix(1.00, 0.00, -0.00, -1.00, 196.1, 572.9)">r</text><text xml:space="preserve" font-family="Helvetica-Light,Helvetica" font-size="25.0" fill="#000000" transform="matrix(1.00, 0.00, -0.00, -1.00, 204.4, 572.9)">i</text><text xml:space="preserve" font-family="Helvetica-Light,Helvetica" font-size="25.0" fill="#000000" transform="matrix(1.00, 0.00, -0.00, -1.00, 210.0, 572.9)">p</text><text xml:space="preserve" font-family="Helvetica-Light,Helvetica" font-size="25.0" fill="#000000" transform="matrix(1.00, 0.00, -0.00, -1.00, 225.3, 572.9)">p</text><text xml:space="preserve" font-family="Helvetica-Light,Helvetica" font-size="25.0" fill="#000000" transform="matrix(1.00, 0.00, -0.00, -1.00, 240.5, 572.9)">l</text><text xml:space="preserve" font-family="Helvetica-Light,Helvetica" font-size="25.0" fill="#000000" transform="matrix(1.00, 0.00, -0.00, -1.00, 246.1, 572.9)">e</text><image xlink:href="C9C630C47ED4575F302DF01889C5EE43.png" width="720.00" height="810.00" transform="matrix(0.42, 0.00, -0.00, -0.42, 41.1, 527.7)"></image><image xlink:href="90D433A641B43F421EFB1974BA01D38B.png" width="720.00" height="810.00" transform="matrix(0.42, 0.00, -0.00, -0.42, 361.9, 527.7)"></image><image xlink:href="17DDABB6B899272482300E8ADEE2EC58.png" width="720.00" height="810.00" transform="matrix(0.42, 0.00, -0.00, -0.42, 682.7, 527.7)"></image><path d="M 443.4 597.1 L 581.0 597.1 L 581.0 567.1 L 443.4 567.1 Z M 443.4 597.1 " fill="#F8F8F8"></path><text xml:space="preserve" font-family="Helvetica-Light,Helvetica" font-size="25.0" fill="#212121" transform="matrix(1.00, 0.00, -0.00, -1.00, 443.4, 572.9)">L</text><text xml:space="preserve" font-family="Helvetica-Light,Helvetica" font-size="25.0" fill="#212121" transform="matrix(1.00, 0.00, -0.00, -1.00, 457.3, 572.9)">i</text><text xml:space="preserve" font-family="Helvetica-Light,Helvetica" font-size="25.0" fill="#212121" transform="matrix(1.00, 0.00, -0.00, -1.00, 462.8, 572.9)">f</text><text xml:space="preserve" font-family="Helvetica-Light,Helvetica" font-size="25.0" fill="#212121" transform="matrix(1.00, 0.00, -0.00, -1.00, 469.8, 572.9)">t</text><text xml:space="preserve" font-family="Helvetica-Light,Helvetica" font-size="25.0" fill="#212121" transform="matrix(1.00, 0.00, -0.00, -1.00, 476.7, 572.9)"> </text><text xml:space="preserve" font-family="Helvetica-Light,Helvetica" font-size="25.0" fill="#212121" transform="matrix(1.00, 0.00, -0.00, -1.00, 483.7, 572.9)">o</text><text xml:space="preserve" font-family="Helvetica-Light,Helvetica" font-size="25.0" fill="#212121" transform="matrix(1.00, 0.00, -0.00, -1.00, 497.6, 572.9)">n</text><text xml:space="preserve" font-family="Helvetica-Light,Helvetica" font-size="25.0" fill="#212121" transform="matrix(1.00, 0.00, -0.00, -1.00, 511.5, 572.9)"> </text><text xml:space="preserve" font-family="Helvetica-Light,Helvetica" font-size="25.0" fill="#212121" transform="matrix(1.00, 0.00, -0.00, -1.00, 518.4, 572.9)">t</text><text xml:space="preserve" font-family="Helvetica-Light,Helvetica" font-size="25.0" fill="#212121" transform="matrix(1.00, 0.00, -0.00, -1.00, 525.4, 572.9)">o</text><text xml:space="preserve" font-family="Helvetica-Light,Helvetica" font-size="25.0" fill="#212121" transform="matrix(1.00, 0.00, -0.00, -1.00, 539.3, 572.9)">u</text><text xml:space="preserve" font-family="Helvetica-Light,Helvetica" font-size="25.0" fill="#212121" transform="matrix(1.00, 0.00, -0.00, -1.00, 553.2, 572.9)">c</text><text xml:space="preserve" font-family="Helvetica-Light,Helvetica" font-size="25.0" fill="#212121" transform="matrix(1.00, 0.00, -0.00, -1.00, 567.1, 572.9)">h</text><text xml:space="preserve" font-family="Helvetica-Light,Helvetica" font-size="25.0" fill="#000000" transform="matrix(1.00, 0.00, -0.00, -1.00, 764.0, 572.9)">T</text><text xml:space="preserve" font-family="Helvetica-Light,Helvetica" font-size="25.0" fill="#000000" transform="matrix(1.00, 0.00, -0.00, -1.00, 775.1, 572.9)">o</text><text xml:space="preserve" font-family="Helvetica-Light,Helvetica" font-size="25.0" fill="#000000" transform="matrix(1.00, 0.00, -0.00, -1.00, 789.0, 572.9)">u</text><text xml:space="preserve" font-family="Helvetica-Light,Helvetica" font-size="25.0" fill="#000000" transform="matrix(1.00, 0.00, -0.00, -1.00, 802.9, 572.9)">c</text><text xml:space="preserve" font-family="Helvetica-Light,Helvetica" font-size="25.0" fill="#000000" transform="matrix(1.00, 0.00, -0.00, -1.00, 816.8, 572.9)">h</text><text xml:space="preserve" font-family="Helvetica-Light,Helvetica" font-size="25.0" fill="#000000" transform="matrix(1.00, 0.00, -0.00, -1.00, 830.7, 572.9)"> </text><text xml:space="preserve" font-family="Helvetica-Light,Helvetica" font-size="25.0" fill="#000000" transform="matrix(1.00, 0.00, -0.00, -1.00, 837.7, 572.9)">r</text><text xml:space="preserve" font-family="Helvetica-Light,Helvetica" font-size="25.0" fill="#000000" transform="matrix(1.00, 0.00, -0.00, -1.00, 846.0, 572.9)">i</text><text xml:space="preserve" font-family="Helvetica-Light,Helvetica" font-size="25.0" fill="#000000" transform="matrix(1.00, 0.00, -0.00, -1.00, 851.6, 572.9)">p</text><text xml:space="preserve" font-family="Helvetica-Light,Helvetica" font-size="25.0" fill="#000000" transform="matrix(1.00, 0.00, -0.00, -1.00, 866.8, 572.9)">p</text><text xml:space="preserve" font-family="Helvetica-Light,Helvetica" font-size="25.0" fill="#000000" transform="matrix(1.00, 0.00, -0.00, -1.00, 882.1, 572.9)">l</text><text xml:space="preserve" font-family="Helvetica-Light,Helvetica" font-size="25.0" fill="#000000" transform="matrix(1.00, 0.00, -0.00, -1.00, 887.7, 572.9)">e</text></g></svg>