<?xml version="1.0" encoding="UTF-8" standalone="no"?><svg xmlns="http://www.w3.org/2000/svg" xmlns:xlink="http://www.w3.org/1999/xlink" clip-rule="evenodd" stroke-miterlimit="10" viewBox="0 0 1024 768"><desc>SVG generated by Keynote</desc><defs></defs><g transform="matrix(1.00, 0.00, -0.00, -1.00, 0.0, 768.0)"><path d="M 0.0 768.0 L 1024.0 768.0 L 1024.0 0.0 L 0.0 0.0 Z M 0.0 768.0 " fill="#F9F9F9"></path><text xml:space="preserve" font-family="Helvetica-Light,Helvetica" font-size="45.0" fill="#9B27B0" transform="matrix(1.00, 0.00, -0.00, -1.00, 337.4, 367.3)">M</text><text xml:space="preserve" font-family="Helvetica-Light,Helvetica" font-size="45.0" fill="#9B27B0" transform="matrix(1.00, 0.00, -0.00, -1.00, 374.8, 367.3)">a</text><text xml:space="preserve" font-family="Helvetica-Light,Helvetica" font-size="45.0" fill="#9B27B0" transform="matrix(1.00, 0.00, -0.00, -1.00, 399.9, 367.3)">s</text><text xml:space="preserve" font-family="Helvetica-Light,Helvetica" font-size="45.0" fill="#9B27B0" transform="matrix(1.00, 0.00, -0.00, -1.00, 422.4, 367.3)">s</text><text xml:space="preserve" font-family="Helvetica-Light,Helvetica" font-size="45.0" fill="#9B27B0" transform="matrix(1.00, 0.00, -0.00, -1.00, 444.9, 367.3)"> </text><text xml:space="preserve" font-family="Helvetica-Light,Helvetica" font-size="45.0" fill="#9B27B0" transform="matrix(1.00, 0.00, -0.00, -1.00, 457.4, 367.3)">a</text><text xml:space="preserve" font-family="Helvetica-Light,Helvetica" font-size="45.0" fill="#9B27B0" transform="matrix(1.00, 0.00, -0.00, -1.00, 482.4, 367.3)">n</text><text xml:space="preserve" font-family="Helvetica-Light,Helvetica" font-size="45.0" fill="#9B27B0" transform="matrix(1.00, 0.00, -0.00, -1.00, 507.4, 367.3)">d</text><text xml:space="preserve" font-family="Helvetica-Light,Helvetica" font-size="45.0" fill="#9B27B0" transform="matrix(1.00, 0.00, -0.00, -1.00, 534.9, 367.3)"> </text><text xml:space="preserve" font-family="Helvetica-Light,Helvetica" font-size="45.0" fill="#9B27B0" transform="matrix(1.00, 0.00, -0.00, -1.00, 547.4, 367.3)">W</text><text xml:space="preserve" font-family="Helvetica-Light,Helvetica" font-size="45.0" fill="#9B27B0" transform="matrix(1.00, 0.00, -0.00, -1.00, 586.6, 367.3)">e</text><text xml:space="preserve" font-family="Helvetica-Light,Helvetica" font-size="45.0" fill="#9B27B0" transform="matrix(1.00, 0.00, -0.00, -1.00, 611.6, 367.3)">i</text><text xml:space="preserve" font-family="Helvetica-Light,Helvetica" font-size="45.0" fill="#9B27B0" transform="matrix(1.00, 0.00, -0.00, -1.00, 621.6, 367.3)">g</text><text xml:space="preserve" font-family="Helvetica-Light,Helvetica" font-size="45.0" fill="#9B27B0" transform="matrix(1.00, 0.00, -0.00, -1.00, 649.1, 367.3)">h</text><text xml:space="preserve" font-family="Helvetica-Light,Helvetica" font-size="45.0" fill="#9B27B0" transform="matrix(1.00, 0.00, -0.00, -1.00, 674.1, 367.3)">t</text></g></svg>